# xmcd
#
# Track frame offsets:
#	150
#	16185
#	24657
#	37280
#	49478
#	62080
#	73508
#	85740
#	98516
#	112349
#	125603
#	137359
#	147989
#	161342
#	170536
#	180580
#	191896
#	208435
#	226517
#	235948
#
# Disc length: 3325 seconds
#
# Revision: 2
# Processed by: cddbd v1.5.2PL0 Copyright (c) Steve Scherf et al.
# Submitted via: audiograbber 1.83.01
#
DISCID=1e0cfb14
DTITLE=Various Artist - 200 Country Classics Vol.1  -  CD 3
DYEAR=2008
DGENRE=Country
TTITLE0=Johnny Cash - A Boy Named Sue
TTITLE1=Waylon Jennings - Abilene
TTITLE2=Billie Joe Spears - 57 Chevrolet
TTITLE3=Merle Haggard - Okie From Muskogee
TTITLE4=Jim Reeves - Bimbo
TTITLE5=Roy Rogers - Hi - Ho Silver
TTITLE6=Willie Nelson - Shelter Of Your Arms
TTITLE7=Gene Autry - South Of The Border
TTITLE8=Freddy Fender - Baby I Want To Love You
TTITLE9=Janie Fricke - He's A Heartache
TTITLE10=Wilma Burgess - Misty Blue
TTITLE11=Ferlin Husky - Gone
TTITLE12=Alabama - Patches
TTITLE13=Bob Luman - Let's Think About Living
TTITLE14=Willie Nelson - Pride Wins Again
TTITLE15=Dolly Parton - Makin' Believe
TTITLE16=Lee Greenwood - Ring On Her Finger Time On Her Hands
TTITLE17=Freddy Fender - Secret Love
TTITLE18=Frankie Laine - Blazing Saddles
TTITLE19=Carter And Young - A Lazy Farmer Boy
EXTD=
EXTT0=
EXTT1=
EXTT2=
EXTT3=
EXTT4=
EXTT5=
EXTT6=
EXTT7=
EXTT8=
EXTT9=
EXTT10=
EXTT11=
EXTT12=
EXTT13=
EXTT14=
EXTT15=
EXTT16=
EXTT17=
EXTT18=
EXTT19=
PLAYORDER=
